<svg xmlns="http://www.w3.org/2000/svg" viewBox="0 0 640 640" role="img" aria-labelledby="title desc">
  <title id="title">CJM Global Integrity Hub</title>
  <desc id="desc">Blue and gold CJM Global Integrity Hub crest logo.</desc>
  <defs>
    <linearGradient id="gold" x1="0%" y1="0%" x2="100%" y2="100%">
      <stop offset="0%" stop-color="#f8e38a" />
      <stop offset="45%" stop-color="#d8b247" />
      <stop offset="100%" stop-color="#a97b17" />
    </linearGradient>
    <linearGradient id="goldSoft" x1="0%" y1="0%" x2="0%" y2="100%">
      <stop offset="0%" stop-color="#f5dd7a" />
      <stop offset="100%" stop-color="#bf8f23" />
    </linearGradient>
    <filter id="shadow" x="-20%" y="-20%" width="140%" height="140%">
      <feDropShadow dx="0" dy="10" stdDeviation="12" flood-color="#05082b" flood-opacity="0.35" />
    </filter>
  </defs>

  <g filter="url(#shadow)">
    <circle cx="320" cy="305" r="165" fill="#101a8c" stroke="url(#gold)" stroke-width="22" />
    <path d="M155 182h330L320 468 155 182Z" fill="#101a8c" stroke="url(#gold)" stroke-width="22" stroke-linejoin="round" />
    <path d="M170 280c95-52 205-52 300 0-23 49-72 84-150 84s-127-35-150-84Z" fill="#101a8c" opacity="0.2" />

    <path d="M130 255c110-58 270-58 380 0-15 26-32 44-48 58-40 35-90 52-142 52s-102-17-142-52c-16-14-33-32-48-58Z" fill="url(#goldSoft)" stroke="#101a8c" stroke-width="10" />
    <path d="M125 260c112-52 278-52 390 0" fill="none" stroke="#101a8c" stroke-width="8" stroke-linecap="round" />
    <path d="M140 296c104 43 256 43 360 0" fill="none" stroke="#101a8c" stroke-width="7" stroke-linecap="round" opacity="0.7" />

    <path d="M295 135h50l-5 26h-40l-5-26Z" fill="url(#gold)" />
    <path d="M267 126c11 0 17 6 17 17 0-11 6-17 17-17s17 6 17 17c0-11 6-17 17-17s17 6 17 17c0-11 6-17 17-17 8 0 15 3 19 9l-14 26h-132l-14-26c4-6 11-9 19-9Z" fill="url(#gold)" stroke="#101a8c" stroke-width="6" stroke-linejoin="round" />
    <path d="M235 170c58-16 112-16 170 0" fill="none" stroke="url(#gold)" stroke-width="10" stroke-linecap="round" />
    <path d="M247 181c48-12 98-12 146 0" fill="none" stroke="url(#gold)" stroke-width="7" stroke-linecap="round" />

    <path d="M282 334h11v100h-11zM305 334h11v110h-11zM328 334h11v110h-11zM351 334h11v100h-11z" fill="url(#gold)" />

    <text x="320" y="240" text-anchor="middle" font-family="Georgia, 'Times New Roman', serif" font-size="86" fill="url(#gold)" letter-spacing="2">CJM</text>
    <text x="320" y="322" text-anchor="middle" font-family="Georgia, 'Times New Roman', serif" font-size="54" fill="#101a8c" font-weight="700" letter-spacing="8">GLOBAL</text>
    <text x="320" y="375" text-anchor="middle" font-family="Georgia, 'Times New Roman', serif" font-size="31" fill="url(#gold)" letter-spacing="1.5">INTEGRITY HUB</text>
  </g>
</svg>
